<svg xmlns="http://www.w3.org/2000/svg" width="1272" height="869" viewBox="0 0 1272 869" fill="none">
  <path d="M 442 869 C 477 869 508 841 508 797 L 508 457 L 413 457 L 413 716 C 413 724 406 726 401 721 L 147 470 C 141 463 144 457 153 457 L 781 457 L 781 362 L 73 362 C 28 362 0 393 0 429 C 0 446 7 464 24 481 L 389 846 C 405 863 424 869 442 869 Z M 1026 853 C 1161 853 1272 742 1272 607 C 1272 472 1161 362 1026 362 L 876 362 L 876 457 L 1026 457 C 1107 457 1177 523 1177 607 C 1177 691 1108 758 1026 758 C 944 758 876 689 876 607 L 876 82 C 876 35 840 0 794 0 L 496 0 C 448 0 413 36 413 83 L 413 362 L 508 362 L 508 106 C 508 100 512 95 518 95 L 770 95 C 776 95 781 100 781 106 L 781 607 C 781 742 891 853 1026 853 Z" fill="currentColor" fill-rule="nonzero"></path>
</svg>